<svg width="368" height="80" viewBox="0 0 368 80" fill="none" xmlns="http://www.w3.org/2000/svg">
<path d="M106.191 24.0729C105.295 24.3518 105.022 25.5582 105.713 26.1888C106.158 26.6011 106.975 26.6556 107.566 26.3222C107.977 26.0918 108.143 25.7826 108.137 25.2733C108.13 24.5215 107.659 24.0668 106.829 24.0244C106.603 24.0122 106.317 24.0365 106.191 24.0729Z" fill="white"/>
<path d="M148.662 24.0912C148.13 24.2609 147.818 24.7035 147.818 25.2734C147.818 26.104 148.469 26.6133 149.399 26.5284C150.176 26.4556 150.634 26.0009 150.627 25.3037C150.627 24.6611 150.322 24.2549 149.717 24.0912C149.312 23.982 148.994 23.982 148.662 24.0912Z" fill="white"/>
<path d="M165.063 24.3759C164.479 25.352 163.821 26.4797 163.821 26.51C163.821 26.5282 164.266 26.5464 164.804 26.5464H165.793L166.716 25.3823C167.221 24.7457 167.679 24.1698 167.726 24.1091C167.812 24.0061 167.759 24 166.55 24H165.289L165.063 24.3759Z" fill="white"/>
<path d="M40.7923 24.2548C40.8321 24.3639 41.0247 24.7701 41.2239 25.1521C42.7445 28.1107 45.6861 30.2024 49.2718 30.8935C50.0088 31.033 50.2678 31.0572 51.4033 31.0572C52.811 31.0633 53.3422 31.0027 54.4976 30.7298C57.406 30.0326 59.8097 28.3471 61.2838 25.9705C61.5893 25.4855 62.1603 24.3093 62.1603 24.1699C62.1603 24.1456 61.0647 24.1214 59.7234 24.1214H57.2798L57.0939 24.3942C56.7685 24.8671 55.9916 25.5643 55.394 25.9281C54.3913 26.5404 53.2957 26.886 52.1005 26.9588C50.6928 27.0497 49.6104 26.8678 48.4484 26.3404C47.3528 25.8432 46.3833 25.0793 45.799 24.2608L45.6595 24.0607H43.1894H40.7192L40.7923 24.2548Z" fill="white"/>
<path d="M79.1789 28.1044C79.2055 32.5788 79.2055 32.5788 79.6504 33.5185C80.3609 35.0342 81.9014 36.1922 83.7075 36.556C84.3516 36.6893 85.9784 36.659 86.6292 36.4953C88.9134 35.9436 90.5601 34.2097 90.8457 32.0634C90.8855 31.7664 90.9121 29.9839 90.9121 27.8073V24.0605H89.5176H88.1232V27.8619C88.1232 32.0695 88.1099 32.1786 87.7115 32.8698C87.4127 33.3791 86.8483 33.8823 86.2972 34.1308C85.9054 34.3067 85.7659 34.337 85.2281 34.3552C84.7367 34.3794 84.5176 34.3552 84.159 34.2582C83.3821 34.0399 82.6916 33.4821 82.2799 32.7364C81.9678 32.1665 81.9479 31.924 81.9479 27.8619V24.0605H80.5468H79.1523L79.1789 28.1044Z" fill="white"/>
<path d="M154.379 26.2615C154.359 27.2315 154.352 27.2558 154.173 27.5104C153.921 27.856 153.569 27.9954 152.951 28.0015H152.466V29.0018V30.0022H153.29H154.12L154.14 32.2879C154.173 34.81 154.179 34.8706 154.604 35.5194C154.85 35.8892 155.295 36.2226 155.766 36.3924C156.245 36.5622 157.652 36.5925 158.276 36.447L158.741 36.3378L158.761 35.3617L158.774 34.3856L158.323 34.4947C157.792 34.616 157.433 34.5796 157.088 34.3614C156.616 34.0703 156.616 34.0643 156.596 31.9544L156.577 30.0628H157.539H158.509V29.0322V28.0015H157.546H156.583V26.6374V25.2732H155.494H154.405L154.379 26.2615Z" fill="white"/>
<path d="M98.3958 27.7286C97.7118 27.8984 96.915 28.347 96.5631 28.7532L96.3572 28.9897V28.4016V27.8195H95.0956H93.834V32.1241V36.4287H95.0956H96.3506L96.3705 33.8035C96.3904 31.2511 96.3971 31.1783 96.5365 30.8994C96.7424 30.4993 97.1939 30.1052 97.5857 29.984C97.7716 29.9233 98.1169 29.8809 98.4157 29.8809C99.2324 29.8809 99.7636 30.1901 100.102 30.8509C100.235 31.1116 100.242 31.2329 100.262 33.7732L100.282 36.4287H101.51H102.738L102.719 33.4094L102.699 30.3962L102.513 29.8991C102.194 29.0321 101.63 28.4076 100.813 28.0075C100.109 27.668 99.0996 27.5528 98.3958 27.7286Z" fill="white"/>
<path d="M124.179 27.7287C123.575 27.8378 123.07 28.0257 122.579 28.3107C119.91 29.887 119.491 33.1973 121.716 35.198C123.117 36.4652 125.122 36.8653 127.154 36.2772C127.732 36.1135 128.681 35.6224 129.007 35.3193L129.212 35.1253L128.741 34.5736C128.475 34.2765 128.196 33.9491 128.117 33.8582L127.971 33.6884L127.652 33.9309C126.689 34.6645 125.235 34.8828 124.192 34.4584C123.655 34.2401 123.123 33.7369 122.931 33.2579C122.851 33.0639 122.785 32.8942 122.785 32.882C122.785 32.8639 124.339 32.8517 126.238 32.8517C129.438 32.8517 129.697 32.8457 129.737 32.7487C129.817 32.5546 129.79 31.1905 129.704 30.851C129.445 29.9113 128.681 28.8927 127.811 28.3531C126.815 27.7347 125.428 27.4983 124.179 27.7287ZM126.224 29.8203C126.457 29.9295 126.729 30.1235 126.835 30.2447C127.041 30.4812 127.366 31.0632 127.366 31.1966C127.366 31.2572 126.868 31.2754 125.109 31.2754C123.86 31.2754 122.851 31.2511 122.851 31.2208C122.851 31.1117 123.07 30.6934 123.256 30.4509C123.714 29.8385 124.358 29.5657 125.242 29.596C125.733 29.6142 125.859 29.6384 126.224 29.8203Z" fill="white"/>
<path d="M163.808 27.6983C162.048 27.9711 160.581 29.1533 159.99 30.76C159.83 31.1904 159.811 31.3359 159.811 32.0938C159.811 32.8456 159.83 32.9972 159.99 33.4276C160.402 34.5735 161.338 35.5375 162.526 36.0649C163.356 36.4287 163.788 36.5136 164.784 36.5075C166.172 36.5015 167.194 36.1983 168.257 35.4768C168.529 35.2889 168.669 35.1555 168.649 35.0949C168.635 35.0403 168.356 34.6947 168.038 34.3249L167.453 33.6459L167.155 33.8884C166.676 34.2703 166.006 34.5432 165.375 34.6099C164.366 34.7129 163.609 34.5189 162.978 33.9854C162.659 33.7186 162.38 33.2821 162.347 32.9972L162.327 32.8213L165.76 32.8031L169.186 32.791L169.24 32.5909C169.266 32.4879 169.286 32.1241 169.286 31.7907C169.286 29.7232 167.712 28.0317 165.475 27.7043C164.99 27.6316 164.266 27.6316 163.808 27.6983ZM165.495 29.7354C165.939 29.8688 166.457 30.3113 166.683 30.76C167.015 31.3905 167.201 31.3359 164.618 31.3359C163.071 31.3359 162.36 31.3178 162.36 31.2693C162.36 31.2389 162.433 31.0631 162.526 30.8873C163.084 29.8142 164.253 29.3595 165.495 29.7354Z" fill="white"/>
<path d="M141.53 27.7588C140.454 27.9346 139.398 28.6257 138.947 29.4381C138.768 29.7595 138.754 29.8444 138.754 30.4264C138.754 31.0387 138.761 31.0812 138.98 31.4449C139.365 32.0876 139.744 32.3119 141.264 32.7848C141.789 32.9485 142.34 33.1365 142.48 33.2031C143.217 33.5487 143.303 34.1914 142.659 34.5612C142.44 34.6825 142.32 34.7007 141.809 34.7007C141.264 34.7007 141.165 34.6825 140.773 34.5066C140.534 34.3975 140.195 34.1974 140.023 34.058L139.704 33.8034L139.047 34.4036C138.688 34.731 138.389 35.0341 138.389 35.0766C138.389 35.2099 139.266 35.8223 139.817 36.0708C141.078 36.6408 142.924 36.6893 144.14 36.186C144.717 35.9496 145.302 35.4343 145.58 34.9189C145.78 34.5491 145.793 34.4824 145.793 33.8822C145.793 33.3183 145.773 33.2031 145.614 32.9C145.414 32.5059 144.996 32.1118 144.565 31.9118C144.399 31.833 143.814 31.6268 143.27 31.4571C142.088 31.0812 141.849 30.9781 141.616 30.7295C141.397 30.487 141.397 30.2445 141.616 30.002C142.108 29.4745 143.044 29.4685 143.9 29.9959L144.279 30.2263L144.89 29.5897L145.507 28.9531L145.222 28.6924C144.91 28.4014 144.133 28.0073 143.568 27.8558C143.13 27.7345 142.008 27.6799 141.53 27.7588Z" fill="white"/>
<path d="M136.291 27.8438C135.773 27.9954 134.923 28.4501 134.664 28.7229L134.405 28.9897V28.4016V27.8195H133.143H131.882V32.1241V36.4287H133.137H134.398L134.418 33.9551L134.438 31.4875L134.644 31.0874C134.883 30.6327 135.215 30.3053 135.66 30.1113C135.912 29.9961 136.105 29.9718 136.749 29.9536L137.526 29.9294V28.8442V27.7589L137.048 27.765C136.782 27.765 136.444 27.8013 136.291 27.8438Z" fill="white"/>
<path d="M105.521 32.1241V36.4287H106.749H107.977V32.1241V27.8195H106.749H105.521V32.1241Z" fill="white"/>
<path d="M109.637 27.8561C109.637 27.8864 112.718 35.3558 113.123 36.3258C113.17 36.4229 113.283 36.4289 114.471 36.4168L115.773 36.3986L117.546 32.1243L119.312 27.8501L118.05 27.8319C117.36 27.8258 116.782 27.8258 116.769 27.8379C116.755 27.8501 116.238 29.1475 115.613 30.7299C114.996 32.3062 114.478 33.6037 114.465 33.6158C114.451 33.634 114.066 32.6942 113.621 31.5362C113.17 30.3722 112.658 29.0687 112.486 28.6382L112.18 27.8501L110.905 27.8319C110.208 27.8258 109.637 27.8379 109.637 27.8561Z" fill="white"/>
<path d="M148.018 32.1241V36.4287L149.266 36.4166L150.508 36.3984V32.1241V27.8499L149.266 27.8317L148.018 27.8195V32.1241Z" fill="white"/>
<path d="M34.0059 32.3545V34.5916L34.3578 34.8099C35.2276 35.3616 36.237 36.5075 36.6553 37.429C37.0869 38.3748 37.1533 38.7083 37.1533 39.9754C37.1533 41.0606 37.1467 41.1576 36.974 41.673C36.7217 42.4126 36.3432 43.1099 35.8784 43.6798C35.4534 44.2012 34.65 44.9105 34.2582 45.1227L34.0059 45.25V47.5054V49.7607L34.4175 49.6031C38.1161 48.2329 40.6261 45.5107 41.4561 41.964C41.5889 41.382 41.6088 41.1516 41.6088 39.9148C41.6022 38.6355 41.5889 38.4597 41.4229 37.7564C40.9515 35.7436 39.982 34.0702 38.488 32.694C37.2396 31.542 36.144 30.8933 34.3578 30.2507L34.0059 30.1233V32.3545Z" fill="white"/>
<path d="M68.0896 30.4144C66.6686 30.9782 65.5995 31.6451 64.4839 32.6697C63.5543 33.5185 62.9634 34.2703 62.3989 35.307C61.5689 36.8349 61.217 38.199 61.217 39.9148C61.2103 41.1819 61.3764 42.158 61.7947 43.3099C62.8372 46.2079 65.0417 48.336 68.229 49.5243L68.8665 49.7607V47.5236V45.2864L68.488 45.0499C68.0497 44.7771 67.3392 44.1284 66.9408 43.6434C66.3034 42.8613 65.812 41.673 65.6792 40.5695C65.4202 38.4233 66.549 36.1437 68.488 34.8826L68.8665 34.6401V32.3787C68.8665 31.1419 68.8598 30.1233 68.8532 30.1233C68.8399 30.1233 68.5012 30.2567 68.0896 30.4144Z" fill="white"/>
<path d="M50.3207 35.9801C49.4176 36.1802 48.4216 36.7804 47.8572 37.4595C47.2263 38.2355 46.9541 38.9752 46.9541 39.9755C46.9541 40.7152 47.0603 41.1396 47.4322 41.8247C47.6447 42.2309 47.8173 42.4431 48.2423 42.8311C49.1586 43.6678 50.0949 44.0315 51.3366 44.0376C52.1865 44.0376 52.585 43.9527 53.3751 43.6071C54.8227 42.9766 55.759 41.661 55.8386 40.1513C55.8984 38.9206 55.4934 37.9687 54.5305 37.0957C53.8864 36.5076 53.3419 36.2105 52.5318 36.0105C51.9475 35.8589 50.9183 35.8468 50.3207 35.9801Z" fill="white"/>
<path d="M84.5842 43.31C82.2668 43.6677 80.2747 45.0258 79.2588 46.9416C78.7607 47.8814 78.6611 48.3361 78.6678 49.6456C78.6678 50.5975 78.6877 50.84 78.8139 51.2402C79.1459 52.3315 79.8033 53.3197 80.7727 54.1745C82.1207 55.3629 83.6081 55.9267 85.5404 55.9934C87.8445 56.0722 89.717 55.4477 91.3439 54.0654L91.7755 53.6956V51.4281V49.1606H89.1526H86.5297V50.07V50.9795H87.7582H88.9866V51.8404L88.98 52.7073L88.6878 52.9195C87.9441 53.4591 87.0012 53.7259 85.8657 53.732C84.956 53.732 84.4713 53.635 83.7077 53.2833C82.1007 52.5497 81.1512 50.9613 81.3172 49.2819C81.377 48.6271 81.4633 48.3482 81.7953 47.7116C82.0476 47.2326 82.1871 47.0568 82.6386 46.6385C83.0702 46.2444 83.296 46.0928 83.7475 45.8988C85.1552 45.2804 86.8485 45.335 88.1898 46.0504C88.4222 46.1777 88.8538 46.493 89.146 46.7476L89.6838 47.2205L90.5271 46.4505C90.9986 46.0261 91.3771 45.6381 91.3771 45.5896C91.3771 45.3592 89.9096 44.2558 89.1061 43.8799C87.8843 43.31 86.0649 43.0857 84.5842 43.31Z" fill="white"/>
<path d="M178.961 43.3221C178.35 43.4131 177.785 43.6798 177.447 44.0315C176.929 44.5711 176.769 45.1046 176.723 46.4445L176.683 47.463H176.032H175.375V48.4634V49.4637H176.039H176.703V52.6164V55.769H177.965H179.226V52.6164V49.4637H180.289H181.351V48.4331V47.4024H180.289H179.226V46.7294C179.226 45.9352 179.313 45.7169 179.711 45.4744C179.943 45.335 180.05 45.3107 180.481 45.3107C180.76 45.3107 181.066 45.3289 181.172 45.3592L181.351 45.4017V44.468V43.5343L181.139 43.4676C180.601 43.31 179.505 43.2372 178.961 43.3221Z" fill="white"/>
<path d="M185.946 43.3403C185.156 43.4919 184.519 43.9284 184.213 44.5165C183.947 45.0258 183.881 45.3774 183.828 46.493L183.788 47.463H183.131H182.48V48.4634V49.4637H183.144H183.808V52.6164V55.769H185.07H186.331V52.6164V49.4637H187.394H188.456V48.4331V47.4024H187.394H186.331V46.7476C186.331 45.9352 186.464 45.6442 186.936 45.4138C187.188 45.2865 187.294 45.2743 187.726 45.2986C187.998 45.3107 188.277 45.3471 188.343 45.3713C188.449 45.4138 188.456 45.3532 188.443 44.4559L188.423 43.4979L188.058 43.4191C187.586 43.3161 186.318 43.2676 185.946 43.3403Z" fill="white"/>
<path d="M171.756 43.3949C171.391 43.4797 171.125 43.6434 170.939 43.8981C170.78 44.1224 170.76 44.2073 170.76 44.6438C170.76 45.0803 170.78 45.1652 170.939 45.3835C171.411 46.0322 172.646 46.0867 173.256 45.4805C173.675 45.0682 173.695 44.3103 173.29 43.8071C173.037 43.4919 172.247 43.2797 171.756 43.3949Z" fill="white"/>
<path d="M158.509 49.6153V55.769H163.522H168.535V54.6474V53.5258L164.903 53.5137L161.264 53.4955L161.245 52.0525L161.231 50.6157H164.02H166.809V49.4637V48.3118H164.02H161.231V47.0083V45.7048H164.817H168.403V44.5832V43.4616H163.456H158.509V49.6153Z" fill="white"/>
<path d="M201.471 49.6153V55.769H202.732H203.994V49.6153V43.4616H202.732H201.471V49.6153Z" fill="white"/>
<path d="M116.065 45.5652C116.045 46.414 116.025 46.5534 115.899 46.7778C115.653 47.19 115.414 47.3052 114.737 47.3295L114.152 47.3537V48.3783V49.403H114.976H115.806L115.826 51.7189C115.846 53.9925 115.852 54.0471 116.005 54.4048C116.33 55.1565 116.835 55.587 117.638 55.8053C118.196 55.9568 119.338 55.9568 119.982 55.8053L120.46 55.6961V54.7261V53.756L120.314 53.7985C120.228 53.8227 119.923 53.853 119.63 53.8652C119.166 53.8894 119.066 53.8773 118.834 53.756C118.661 53.6651 118.515 53.5196 118.422 53.3438C118.276 53.0831 118.269 53.0224 118.269 51.24V49.409L119.252 49.3908L120.228 49.3726V48.3723V47.3719L119.252 47.3537L118.269 47.3355V45.9775V44.6133H117.18H116.091L116.065 45.5652Z" fill="white"/>
<path d="M125.573 47.0445C125.095 47.093 124.458 47.2688 123.927 47.5113C123.555 47.675 122.639 48.354 122.526 48.542C122.473 48.639 122.572 48.7542 123.137 49.2695L123.82 49.8879L124.013 49.706C124.81 48.9482 126.576 48.8087 127.253 49.4514C127.453 49.6393 127.632 49.997 127.632 50.2092C127.632 50.3426 127.585 50.3547 126.025 50.6094C124.159 50.9125 123.615 51.058 123.097 51.3672C122.366 51.8098 121.981 52.3615 121.862 53.1254C121.735 53.9318 121.988 54.6169 122.619 55.1565C123.455 55.884 124.85 56.1326 125.998 55.7688C126.53 55.6051 127.081 55.3202 127.386 55.0534L127.632 54.8351V55.3323V55.8294H128.9H130.162L130.142 52.7859C130.122 49.7788 130.115 49.7303 129.969 49.3423C129.743 48.7784 129.518 48.451 129.04 48.0266C128.203 47.2688 126.915 46.905 125.573 47.0445ZM127.632 52.1008C127.632 52.8405 127.353 53.4165 126.828 53.7681C126.477 53.9985 126.125 54.0894 125.567 54.0834C124.71 54.0834 124.299 53.7742 124.299 53.1497C124.305 52.7738 124.471 52.507 124.816 52.3312C125.022 52.2281 127.008 51.8219 127.552 51.7734C127.605 51.7674 127.632 51.8704 127.632 52.1008Z" fill="white"/>
<path d="M146.517 47.0448C144.99 47.2085 143.483 48.2028 142.805 49.4881C142.407 50.2459 142.281 50.8219 142.32 51.6707C142.387 52.8832 142.852 53.7987 143.841 54.6475C144.432 55.1568 145.01 55.472 145.727 55.6903C146.212 55.8419 146.344 55.854 147.287 55.854C148.456 55.854 149 55.7509 149.837 55.375C150.322 55.1628 151.205 54.5869 151.205 54.4899C151.205 54.4292 150.016 53.0409 149.963 53.0409C149.943 53.0409 149.791 53.15 149.625 53.2834C149.246 53.5926 148.642 53.8593 148.097 53.9563C147.579 54.0473 146.769 53.9988 146.331 53.8472C145.82 53.6714 145.295 53.247 145.05 52.8044C144.664 52.1254 144.319 52.1921 148.277 52.1921H151.716L151.763 51.9132C152.101 49.6457 150.747 47.6935 148.463 47.166C147.852 47.0205 147.115 46.9781 146.517 47.0448ZM148.117 49.1243C148.31 49.2031 148.595 49.385 148.748 49.5244C149.04 49.7912 149.346 50.3065 149.346 50.5369V50.6764H147.081H144.824L144.87 50.5369C145.129 49.7609 145.846 49.1304 146.637 48.9788C147.075 48.8939 147.719 48.9545 148.117 49.1243Z" fill="white"/>
<path d="M193.994 47.0448C192.467 47.2085 190.96 48.2028 190.282 49.4881C189.884 50.2459 189.758 50.8219 189.798 51.6707C189.864 52.8832 190.329 53.7987 191.318 54.6475C191.909 55.1568 192.487 55.472 193.204 55.6903C193.689 55.8419 193.821 55.854 194.764 55.854C195.933 55.854 196.478 55.7509 197.314 55.375C197.799 55.1628 198.682 54.5869 198.682 54.4899C198.682 54.4292 197.493 53.0409 197.44 53.0409C197.42 53.0409 197.268 53.15 197.102 53.2834C196.723 53.5926 196.119 53.8593 195.574 53.9563C195.057 54.0473 194.246 53.9988 193.808 53.8472C193.297 53.6714 192.772 53.247 192.527 52.8044C192.142 52.1254 191.796 52.1921 195.754 52.1921H199.193L199.24 51.9132C199.632 49.3001 197.799 47.2024 194.964 47.0205C194.691 47.0023 194.253 47.0144 193.994 47.0448ZM195.594 49.1243C195.787 49.2031 196.072 49.385 196.225 49.5244C196.517 49.7912 196.823 50.3065 196.823 50.5369V50.6764H194.559H192.301L192.347 50.5369C192.606 49.7609 193.323 49.1304 194.114 48.9788C194.552 48.8939 195.196 48.9545 195.594 49.1243Z" fill="white"/>
<path d="M108.375 47.1354C107.36 47.3355 106.357 48.0085 105.945 48.7724C105.773 49.0937 105.753 49.1907 105.753 49.7364C105.753 50.2638 105.773 50.3851 105.925 50.6761C106.277 51.3551 106.828 51.6886 108.289 52.1251C109.577 52.5071 110.002 52.7556 110.075 53.174C110.128 53.4529 109.976 53.7196 109.657 53.9015C109.438 54.0228 109.318 54.0409 108.807 54.0409C108.249 54.0409 108.17 54.0228 107.751 53.8348C107.506 53.7196 107.167 53.5135 107.001 53.3862L106.702 53.1437L106.045 53.7439C105.567 54.1804 105.394 54.3805 105.421 54.4532C105.447 54.5078 105.653 54.6897 105.872 54.8594C107.725 56.2539 111.025 56.1932 112.28 54.7442C112.685 54.2774 112.844 53.8469 112.844 53.1922C112.844 51.9311 112.267 51.3915 110.288 50.7913C108.907 50.373 108.508 50.1244 108.508 49.706C108.508 49.2513 108.947 48.9603 109.637 48.9543C110.142 48.9482 110.573 49.0816 110.998 49.3787L111.29 49.5787L111.921 48.93L112.559 48.2813L112.22 47.9903C111.337 47.2324 109.703 46.8687 108.375 47.1354Z" fill="white"/>
<path d="M94.3848 50.082C94.418 53.3074 94.4246 53.3862 94.8562 54.1926C95.507 55.4233 97.0674 56.1327 98.6013 55.8962C99.1922 55.7992 100.208 55.3687 100.56 55.0535L100.806 54.8352V55.3324V55.8295H102.067H103.329V51.5249V47.2203H102.067H100.806V49.7243C100.806 52.5132 100.793 52.6465 100.368 53.1679C100.241 53.3256 100.002 53.5135 99.7965 53.6227C99.4778 53.7803 99.3848 53.7985 98.847 53.7985C98.3091 53.7985 98.2161 53.7803 97.8974 53.6166C97.5056 53.4226 97.2932 53.2164 97.0674 52.8345C96.9213 52.592 96.9213 52.5374 96.9014 49.8698L96.8815 47.1597H95.6132H94.3516L94.3848 50.082Z" fill="white"/>
<path d="M131.756 47.4752C131.829 47.651 132.626 49.585 133.529 51.7676L135.169 55.7388H136.49H137.818L139.558 51.4948C140.521 49.1606 141.304 47.2327 141.304 47.2023C141.311 47.1781 140.733 47.166 140.036 47.172L138.755 47.1902L137.632 50.1186C136.869 52.1011 136.49 53.0166 136.45 52.9559C136.417 52.9074 135.906 51.5918 135.315 50.0276L134.233 47.1902L132.925 47.172L131.623 47.1599L131.756 47.4752Z" fill="white"/>
<path d="M170.926 51.4645V55.769H172.154H173.383V51.4645V47.1599H172.154H170.926V51.4645Z" fill="white"/>
<path d="M50.3672 48.8029C47.8771 49.003 45.4933 49.9548 43.6872 51.4645C43.0431 52.004 42.2264 52.9256 41.7416 53.6653C41.4096 54.1745 40.7124 55.5629 40.7124 55.7145C40.7124 55.7448 41.6487 55.769 43.1294 55.769H45.5464L45.8851 55.3507C47.4654 53.4046 50.2145 52.4588 52.8639 52.9498C54.3978 53.2409 55.8985 54.0957 56.8613 55.2355L57.2663 55.7084H59.7165C61.0579 55.7084 62.1601 55.6963 62.1601 55.6781C62.1601 55.5568 61.1442 53.8108 60.7989 53.3439C58.8799 50.7248 55.8586 49.0939 52.3991 48.8029C51.5558 48.7301 51.257 48.7301 50.3672 48.8029Z" fill="white"/>
<path d="M265.322 20.703C263.494 21.1718 262.931 21.4218 261.416 22.4218C258.197 24.5312 255.385 28.5468 254.681 32.0312C254.338 33.7499 254.447 36.8593 254.916 38.6718C255.775 41.9999 258.338 45.4374 261.681 47.7655C262.963 48.6562 265.166 49.7343 266.931 50.3124C268.135 50.7187 268.572 50.7812 269.572 50.7499C271.947 50.6562 271.478 49.828 267.228 46.6405C265.619 45.4218 263.978 44.1249 263.588 43.7499C262.525 42.7187 261.385 40.8749 260.947 39.5312C259.9 36.1874 260.431 33.6405 262.697 31.2343C264.088 29.7499 265.353 28.8749 267.806 27.6562C270.135 26.4999 270.244 26.3593 270.666 24.2655C271.072 22.1874 270.51 21.0624 268.838 20.5624C267.728 20.2343 267.01 20.2655 265.322 20.703Z" fill="white"/>
<path d="M272.744 27.7812C272.525 27.8124 272.26 27.9218 272.166 27.9999C271.822 28.2812 271.947 29.3437 272.525 31.0624C274.244 36.2655 274.51 40.4843 273.369 45.2968C272.65 48.3905 272.744 49.3905 273.916 50.5155C275.353 51.9062 277.775 51.8437 279.182 50.3593C280.26 49.2187 281.166 45.953 281.182 43.1249C281.197 41.2187 281.697 41.328 282.291 43.3593C282.869 45.328 283.103 45.8437 283.682 46.4374C284.822 47.578 286.057 47.0155 288.088 44.3905C289.807 42.1874 291.119 41.0937 292.025 41.0937C292.713 41.0937 293.978 42.4843 294.713 44.0312C296.291 47.3749 296.572 47.8593 297.525 48.8905C298.947 50.4374 301.01 51.4218 301.275 50.703C301.322 50.578 301.088 49.6405 300.728 48.6405C299.9 46.203 299.572 45.078 298.838 41.9062C298.182 39.0312 297.666 37.7187 296.697 36.4374C295.541 34.9062 294.213 34.2187 292.416 34.2187C291.135 34.2187 290.447 34.4687 289.463 35.2968C288.15 36.4062 287.791 36.328 286.713 34.6718C285.932 33.4843 285.385 32.9999 284.307 32.5155C282.994 31.9218 281.775 32.1405 280.01 33.2812C279.447 33.6405 278.9 33.9062 278.791 33.8593C278.666 33.8124 278.244 33.1093 277.853 32.3124C276.275 29.078 274.478 27.4687 272.744 27.7812Z" fill="white"/>
<path d="M299.775 35.6092C299.353 36.4061 299.963 39.9061 301.135 43.4998C302.635 48.0936 304.494 50.6873 306.76 51.3436C308.588 51.8748 310.603 51.0623 312.713 48.953C313.432 48.2342 314.072 47.6561 314.15 47.6561C314.228 47.6561 314.619 48.0936 315.025 48.6092C317.291 51.5623 321.385 52.1248 325.697 50.078C327.744 49.0936 330.463 47.0311 331.463 45.703C332.26 44.6248 332.541 43.6405 332.244 43.0155C331.853 42.203 331.4 42.3592 328.994 44.2186C328.432 44.6405 327.447 45.2186 326.807 45.4998C325.791 45.9373 325.447 45.9998 324.228 46.0155C322.947 46.0155 322.728 45.9686 321.791 45.5155C320.51 44.8905 319.525 43.9217 318.322 42.1092C317.119 40.3123 316.885 40.0467 315.994 39.5936C314.353 38.7498 312.838 39.2186 310.635 41.2498C308.869 42.8748 307.963 43.2967 307.072 42.9061C306.432 42.6405 306.338 42.5311 304.603 39.9217C302.916 37.3905 300.994 35.3123 300.353 35.3123C300.103 35.3123 299.885 35.4373 299.775 35.6092Z" fill="white"/>
</svg>
