<svg width="50" height="50" viewBox="0 0 50 50" fill="none" xmlns="http://www.w3.org/2000/svg">
<rect x="0.5" y="0.5" width="49" height="49" stroke="white"/>
<path d="M25 17.5V15.5M32.5 25H34.5M30.3033 30.3033L31.7175 31.7175M25 34.5V32.5M15.5 25H17.5M18.2825 18.2825L19.6967 19.6967M19.6967 30.3031L18.2825 31.7173M31.7175 18.2826L30.3033 19.6968M29 25C29 27.2091 27.2091 29 25 29C22.7909 29 21 27.2091 21 25C21 22.7909 22.7909 21 25 21C27.2091 21 29 22.7909 29 25Z" stroke="white" stroke-width="1.25" stroke-linecap="round"/>
</svg>
